# xmcd
#
# Track frame offsets: 
#        150
#        13279
#        27398
#        43465
#        60386
#        79375
#
# Disc length: 1257 seconds
#
# Revision: 1
# Processed by: cddbd v1.5.2PL0 Copyright (c) Steve Scherf et al.
# Submitted via: ExactAudioCopyFreeDBPlugin 1.0
#
DISCID=4f04e706
DTITLE=Michelle Branch - Everything Comes and Goes - EP
DYEAR=2010
DGENRE=Country
TTITLE0=Ready to Let You Go
TTITLE1=Sooner or Later
TTITLE2=I Want Tears
TTITLE3=Crazy Ride
TTITLE4=Summertime
TTITLE5=Everything Comes and Goes
EXTD=
EXTT0=
EXTT1=
EXTT2=
EXTT3=
EXTT4=
EXTT5=
PLAYORDER=
